<svg width="76" height="76" xmlns="http://www.w3.org/2000/svg" xmlns:xlink="http://www.w3.org/1999/xlink" overflow="hidden"><defs><clipPath id="clip0"><rect x="439" y="530" width="76" height="76"/></clipPath></defs><g clip-path="url(#clip0)" transform="translate(-439 -530)"><path d="M474.801 570.279 470.322 565.801 474.801 561.322 479.279 565.801C480.214 566.721 481.718 566.708 482.638 565.773 483.547 564.849 483.547 563.366 482.637 562.442L478.159 557.964 480.958 555.165 475.36 549.567C471.377 545.582 465.141 544.945 460.434 548.043L458.598 546.143C454.563 541.991 449.023 539.642 443.233 539.629L440.583 539.629 440.583 544.379 443.233 544.379C447.738 544.388 452.048 546.215 455.187 549.446L457.073 551.396C453.949 556.105 454.575 562.363 458.571 566.359L464.165 571.958 466.964 569.159 471.442 573.637C472.377 574.557 473.88 574.545 474.8 573.611 475.71 572.686 475.71 571.204 474.801 570.279Z" fill="#FFFFFF"/><path d="M510.81 591.75C506.495 591.759 502.347 590.081 499.251 587.075L497.086 584.98C500.182 580.273 499.545 574.038 495.561 570.054L489.964 564.456 473.171 581.25 478.769 586.848C482.765 590.843 489.023 591.47 493.731 588.345L495.948 590.49C499.928 594.355 505.261 596.512 510.81 596.5L513.417 596.5 513.417 591.75Z" fill="#FFFFFF"/></g></svg>