<svg width="76" height="76" xmlns="http://www.w3.org/2000/svg" xmlns:xlink="http://www.w3.org/1999/xlink" overflow="hidden"><defs><clipPath id="clip0"><rect x="439" y="221" width="76" height="76"/></clipPath></defs><g clip-path="url(#clip0)" transform="translate(-439 -221)"><path d="M496.317 223.454 441.454 278.317 457.683 294.546 512.467 239.762 496.317 223.454ZM497.425 248.075 491.25 254.25 486.342 249.342 484.125 251.558 489.033 256.467 482.858 262.642 477.95 257.733 475.733 259.95 480.642 264.858 474.467 271.033 469.558 266.125 467.342 268.342 472.25 273.25 466.075 279.425 461.167 274.517 458.95 276.733 463.858 281.642 457.763 287.737 448.263 278.237 496.317 230.183 505.817 239.683 499.721 245.779 494.812 240.871 492.517 243.167 497.425 248.075Z" fill="#FFFFFF"/></g></svg>